<?xml version="1.0" encoding="UTF-8" standalone="no"?>
<!DOCTYPE svg PUBLIC "-//W3C//DTD SVG 1.1//EN" "http://www.w3.org/Graphics/SVG/1.1/DTD/svg11.dtd">
<svg version="1.1" xmlns="http://www.w3.org/2000/svg" xmlns:xlink="http://www.w3.org/1999/xlink" preserveAspectRatio="xMidYMid meet" viewBox="0 0 640 640" width="400" height="400"><defs><path d="M320 0C143.27 0 0 143.27 0 320C0 496.73 143.27 640 320 640C496.73 640 640 496.73 640 320C640 143.27 496.73 0 320 0Z" id="a3SIVSSKtw"></path><path d="M101.26 476.9C101.26 478.92 102.91 480.44 104.81 480.44C147.83 480.44 492.04 480.44 535.07 480.44C537.09 480.44 538.61 478.8 538.61 476.9C538.61 460 538.61 375.51 538.61 223.43L101.26 223.43L101.26 223.43C101.26 375.51 101.26 460 101.26 476.9Z" id="aCi5bhEf"></path><path d="M538.74 181.86C538.74 169.57 528.73 159.56 516.44 159.56C477.15 159.56 162.85 159.56 123.56 159.56C111.27 159.56 101.26 169.57 101.26 181.86C101.26 184.75 101.26 199.2 101.26 225.2L538.74 225.2C538.74 199.2 538.74 184.75 538.74 181.86Z" id="b1XuooAhAC"></path><path d="M146.25 208.22C137.5 208.22 130.41 201.12 130.41 192.38C130.41 192.38 130.41 192.38 130.41 192.38C130.41 183.64 137.5 176.54 146.25 176.54C167.71 176.54 339.35 176.54 360.81 176.54C369.55 176.54 376.65 183.64 376.65 192.38C376.65 192.38 376.65 192.38 376.65 192.38C376.65 201.12 369.55 208.22 360.81 208.22C317.9 208.22 167.71 208.22 146.25 208.22Z" id="b23TQ3YLW"></path><path d="M493.37 176.41C484.41 176.41 477.15 183.67 477.15 192.63C477.15 201.59 484.41 208.86 493.37 208.86C502.33 208.86 509.59 201.59 509.59 192.63C509.59 183.67 502.33 176.41 493.37 176.41Z" id="abt7U2foS"></path><path d="M446.73 176.41C437.77 176.41 430.51 183.67 430.51 192.63C430.51 201.59 437.77 208.86 446.73 208.86C455.69 208.86 462.95 201.59 462.95 192.63C462.95 183.67 455.69 176.41 446.73 176.41Z" id="b1YWSmSeSp"></path><path d="M144.22 198.21L140.42 187.18L143.59 187.18L145.74 193.9L147.9 187.18L150.94 187.18L153.09 193.9L155.25 187.18L158.42 187.18L154.61 198.21L151.45 198.21L149.42 192.13L147.39 198.21L144.22 198.21Z" id="b86b3rjBR"></path><path d="M162.85 198.21L159.05 187.18L162.22 187.18L164.37 193.9L166.53 187.18L169.57 187.18L171.72 193.9L173.88 187.18L177.05 187.18L173.24 198.21L170.08 198.21L168.05 192.13L166.02 198.21L162.85 198.21Z" id="a2XGSKEks9"></path><path d="M181.35 198.21L177.55 187.18L180.72 187.18L182.88 193.9L185.03 187.18L188.07 187.18L190.23 193.9L192.38 187.18L195.55 187.18L191.75 198.21L188.58 198.21L186.55 192.13L184.52 198.21L181.35 198.21Z" id="b1tV5vQka7"></path><path d="M263.48 388.18C263.48 388.18 263.48 388.18 263.48 388.18C263.48 414.49 263.48 429.11 263.48 432.03C263.48 432.03 263.48 432.03 263.48 432.03C248.65 432.03 240.41 432.03 238.76 432.03C238.76 432.03 238.76 432.03 238.76 432.03C238.76 405.72 238.76 391.11 238.76 388.18C238.76 388.18 238.76 388.18 238.76 388.18C253.59 388.18 261.83 388.18 263.48 388.18Z" id="akiAf9Oig"></path><path d="M309.35 350.29C309.35 350.29 309.35 350.29 309.35 350.29C309.35 399.33 309.35 426.58 309.35 432.03C309.35 432.03 309.35 432.03 309.35 432.03C294.53 432.03 286.29 432.03 284.64 432.03C284.64 432.03 284.64 432.03 284.64 432.03C284.64 382.99 284.64 355.74 284.64 350.29C284.64 350.29 284.64 350.29 284.64 350.29C299.47 350.29 307.71 350.29 309.35 350.29Z" id="jG1DCi51q"></path><path d="M355.36 366.76C355.36 366.76 355.36 366.76 355.36 366.76C355.36 405.85 355.36 427.56 355.36 431.9C355.36 431.9 355.36 431.9 355.36 431.9C340.53 431.9 332.29 431.9 330.65 431.9C330.65 431.9 330.65 431.9 330.65 431.9C330.65 392.82 330.65 371.11 330.65 366.76C330.65 366.76 330.65 366.76 330.65 366.76C345.47 366.76 353.71 366.76 355.36 366.76Z" id="a24Xuh72Bt"></path><path d="M401.24 328.11C401.24 328.11 401.24 328.11 401.24 328.11C401.24 390.46 401.24 425.1 401.24 432.03C401.24 432.03 401.24 432.03 401.24 432.03C386.41 432.03 378.17 432.03 376.52 432.03C376.52 432.03 376.52 432.03 376.52 432.03C376.52 369.68 376.52 335.04 376.52 328.11C376.52 328.11 376.52 328.11 376.52 328.11C391.35 328.11 399.59 328.11 401.24 328.11Z" id="a4vQOMnwVQ"></path></defs><g><g><g><use xlink:href="#a3SIVSSKtw" opacity="1" fill="#20c254" fill-opacity="1"></use><g><use xlink:href="#a3SIVSSKtw" opacity="1" fill-opacity="0" stroke="#000000" stroke-width="1" stroke-opacity="0"></use></g></g><g><use xlink:href="#aCi5bhEf" opacity="1" fill="#ffffff" fill-opacity="1"></use><g><use xlink:href="#aCi5bhEf" opacity="1" fill-opacity="0" stroke="#000000" stroke-width="1" stroke-opacity="0"></use></g></g><g><use xlink:href="#b1XuooAhAC" opacity="1" fill="#324a5e" fill-opacity="1"></use><g><use xlink:href="#b1XuooAhAC" opacity="1" fill-opacity="0" stroke="#000000" stroke-width="1" stroke-opacity="0"></use></g></g><g><use xlink:href="#b23TQ3YLW" opacity="1" fill="#ffffff" fill-opacity="1"></use><g><use xlink:href="#b23TQ3YLW" opacity="1" fill-opacity="0" stroke="#000000" stroke-width="1" stroke-opacity="0"></use></g></g><g><use xlink:href="#abt7U2foS" opacity="1" fill="#ff7058" fill-opacity="1"></use><g><use xlink:href="#abt7U2foS" opacity="1" fill-opacity="0" stroke="#000000" stroke-width="1" stroke-opacity="0"></use></g></g><g><use xlink:href="#b1YWSmSeSp" opacity="1" fill="#acb3ba" fill-opacity="1"></use><g><use xlink:href="#b1YWSmSeSp" opacity="1" fill-opacity="0" stroke="#000000" stroke-width="1" stroke-opacity="0"></use></g></g><g><use xlink:href="#b86b3rjBR" opacity="1" fill="#324a5e" fill-opacity="1"></use><g><use xlink:href="#b86b3rjBR" opacity="1" fill-opacity="0" stroke="#000000" stroke-width="1" stroke-opacity="0"></use></g></g><g><use xlink:href="#a2XGSKEks9" opacity="1" fill="#324a5e" fill-opacity="1"></use><g><use xlink:href="#a2XGSKEks9" opacity="1" fill-opacity="0" stroke="#000000" stroke-width="1" stroke-opacity="0"></use></g></g><g><use xlink:href="#b1tV5vQka7" opacity="1" fill="#324a5e" fill-opacity="1"></use><g><use xlink:href="#b1tV5vQka7" opacity="1" fill-opacity="0" stroke="#000000" stroke-width="1" stroke-opacity="0"></use></g></g><g><use xlink:href="#akiAf9Oig" opacity="1" fill="#4cdbc4" fill-opacity="1"></use><g><use xlink:href="#akiAf9Oig" opacity="1" fill-opacity="0" stroke="#000000" stroke-width="1" stroke-opacity="0"></use></g></g><g><use xlink:href="#jG1DCi51q" opacity="1" fill="#4cdbc4" fill-opacity="1"></use><g><use xlink:href="#jG1DCi51q" opacity="1" fill-opacity="0" stroke="#000000" stroke-width="1" stroke-opacity="0"></use></g></g><g><use xlink:href="#a24Xuh72Bt" opacity="1" fill="#4cdbc4" fill-opacity="1"></use><g><use xlink:href="#a24Xuh72Bt" opacity="1" fill-opacity="0" stroke="#000000" stroke-width="1" stroke-opacity="0"></use></g></g><g><use xlink:href="#a4vQOMnwVQ" opacity="1" fill="#4cdbc4" fill-opacity="1"></use><g><use xlink:href="#a4vQOMnwVQ" opacity="1" fill-opacity="0" stroke="#000000" stroke-width="1" stroke-opacity="0"></use></g></g></g></g></svg>