<?xml version="1.0" encoding="iso-8859-1"?>
<!-- Generator: Adobe Illustrator 19.0.0, SVG Export Plug-In . SVG Version: 6.00 Build 0)  -->
<svg version="1.1" id="Layer_1" xmlns="http://www.w3.org/2000/svg" xmlns:xlink="http://www.w3.org/1999/xlink" x="0px" y="0px"
	 viewBox="0 0 356.314 356.314" style="enable-background:new 0 0 356.314 356.314;" xml:space="preserve">
<g>
	<g>
		<path style="fill:#333E48;" d="M311.798,310.627c-1.324,13.44-13.456,24.436-26.959,24.436H119.475
			c-13.504,0-25.636-10.996-26.958-24.436l-26.09-264.94c-1.323-13.439,8.644-24.436,22.148-24.436H315.74
			c13.504,0,23.471,10.996,22.147,24.436L311.798,310.627z"/>
		<path style="fill:#3E4A57;" d="M328.874,21.252c15.155,0,27.44,12.286,27.44,27.44c0,15.155-12.286,27.44-27.44,27.44H75.44
			C60.286,76.133,48,63.848,48,48.692c0-15.154,12.286-27.44,27.44-27.44H328.874z"/>
	</g>
	<g>
		<path style="fill:#3E4A57;" d="M263.798,310.627c-1.324,13.44-13.456,24.436-26.959,24.436H71.475
			c-13.504,0-25.636-10.996-26.959-24.436L18.427,45.687c-1.323-13.439,8.644-24.436,22.148-24.436H267.74
			c13.504,0,23.471,10.996,22.147,24.436L263.798,310.627z"/>
		<path style="fill:#4C5B6B;" d="M280.874,21.252c15.155,0,27.44,12.286,27.44,27.44c0,15.155-12.286,27.44-27.44,27.44H27.44
			C12.286,76.133,0,63.848,0,48.692c0-15.154,12.286-27.44,27.44-27.44H280.874z"/>
	</g>
	<g>
		<polygon style="fill:#8DCD6F;" points="195.753,161.987 171.69,120.309 171.69,120.31 136.71,120.311 136.709,120.31 
			115.863,156.419 131.551,154.423 137.94,169.661 154.373,141.198 173.721,174.708 162.359,181.268 194.738,185.39 
			207.358,155.287 		"/>
		<polygon style="fill:#8DCD6F;" points="103.807,177.315 79.743,218.995 79.746,218.993 97.236,249.286 97.236,249.287 
			138.929,249.287 129.356,236.699 139.36,223.546 106.493,223.546 125.84,190.036 137.201,196.596 124.581,166.494 92.202,170.615 
					"/>
		<polygon style="fill:#8DCD6F;" points="162.956,249.125 211.084,249.125 211.08,249.123 228.57,218.829 228.571,218.829 
			207.725,182.722 201.609,197.307 185.217,195.22 201.65,223.684 162.956,223.684 162.956,210.563 143.198,236.544 
			162.957,262.524 		"/>
	</g>
</g>
<g>
</g>
<g>
</g>
<g>
</g>
<g>
</g>
<g>
</g>
<g>
</g>
<g>
</g>
<g>
</g>
<g>
</g>
<g>
</g>
<g>
</g>
<g>
</g>
<g>
</g>
<g>
</g>
<g>
</g>
</svg>
